<svg width="200" height="80" viewBox="0 0 314 84" fill="none" xmlns="http://www.w3.org/2000/svg">
<path d="M314 11.7136C314 5.2552 308.125 0 300.906 0C295.608 0 291.038 2.82926 288.978 6.88542C286.92 2.82926 282.349 0 277.053 0C269.831 0 263.958 5.2552 263.958 11.7136C263.958 13.076 264.219 14.3825 264.701 15.6004C265.248 16.9865 266.078 18.2527 267.131 19.3447C267.579 19.812 268.067 20.2458 268.593 20.6445L288.565 38.3896C288.688 38.4999 288.848 38.5544 289.01 38.5544C289.173 38.5544 289.334 38.4999 289.458 38.3896L310.172 19.9815L310.171 19.979C311.513 18.7755 312.566 17.3148 313.226 15.6845C313.726 14.4443 314 13.1068 314 11.7136Z" fill="#FF0014"/>
<path d="M308.435 11.102V12.7582C308.435 13.2584 308.026 13.6823 307.531 13.6823H306.399C304.742 13.6823 303.399 15.0254 303.399 16.6823V17.3593C303.399 17.8024 302.948 18.1677 302.366 18.1677H300.516C299.935 18.1677 299.483 17.8024 299.483 17.3593V16.6823C299.483 15.0254 298.139 13.6823 296.483 13.6823H295.351C294.857 13.6823 294.448 13.2584 294.448 12.7582V11.102C294.448 10.5827 294.857 10.1589 295.351 10.1589H296.483C298.139 10.1589 299.483 8.81574 299.483 7.15888V6.4817C299.483 6.03872 299.935 5.6731 300.516 5.6731H302.366C302.948 5.6731 303.399 6.03872 303.399 6.4817V7.15888C303.399 8.81574 304.742 10.1589 306.399 10.1589H307.531C308.026 10.1589 308.435 10.5827 308.435 11.102Z" fill="white"/>
<path d="M0 82.5159V39.4895H18.6151C20.724 39.4895 22.6707 39.9137 24.4551 40.7621C26.2396 41.6105 27.7807 42.7619 29.0785 44.2163C30.3762 45.6303 31.3699 47.2262 32.0593 49.0038C32.7893 50.7814 33.1543 52.5792 33.1543 54.3972C33.1543 56.9425 32.546 59.3463 31.3293 61.6087C30.1532 63.8711 28.4904 65.7295 26.3409 67.184C24.232 68.598 21.7581 69.305 18.9192 69.305H11.8626V82.5159H0ZM11.8626 59.0029H18.1284C18.8584 59.0029 19.5276 58.6797 20.1359 58.0333C20.7848 57.3465 21.1093 56.1344 21.1093 54.3972C21.1093 52.6196 20.7443 51.4076 20.0143 50.7612C19.2842 50.1148 18.5542 49.7916 17.8242 49.7916H11.8626V59.0029Z" fill="#414141"/>
<path d="M58.8289 60.4573C56.5984 60.4573 54.5706 60.6997 52.7456 61.1845C50.9206 61.6693 49.5619 62.4773 48.6697 63.6085V82.5159H37.1113V50.64H47.6964V56.7001C48.8319 54.5588 50.2514 52.9226 51.9547 51.7914C53.6581 50.6198 55.4628 50.034 57.3689 50.034C58.1395 50.034 58.6262 50.0542 58.8289 50.0946V60.4573Z" fill="#414141"/>
<path d="M78.175 83.1219C74.3627 83.1219 71.1588 82.3543 68.5633 80.8191C65.9677 79.2435 64.0007 77.2033 62.6624 74.6984C61.3241 72.1936 60.6549 69.4868 60.6549 66.578C60.6549 63.6287 61.3241 60.9017 62.6624 58.3969C64.0007 55.892 65.9677 53.872 68.5633 52.3368C71.1588 50.8016 74.3627 50.034 78.175 50.034C81.9872 50.034 85.1911 50.8016 87.7867 52.3368C90.3822 53.872 92.3492 55.892 93.6875 58.3969C95.0259 60.9017 95.695 63.6287 95.695 66.578C95.695 69.4868 95.0259 72.1936 93.6875 74.6984C92.3492 77.2033 90.3822 79.2435 87.7867 80.8191C85.1911 82.3543 81.9872 83.1219 78.175 83.1219ZM72.5174 66.578C72.5174 68.6788 73.0447 70.3554 74.0991 71.6078C75.1941 72.8198 76.5527 73.4258 78.175 73.4258C79.8378 73.4258 81.1964 72.8198 82.2508 71.6078C83.3053 70.3554 83.8325 68.6788 83.8325 66.578C83.8325 64.4367 83.3053 62.7601 82.2508 61.5481C81.1964 60.3361 79.8378 59.7301 78.175 59.7301C76.5527 59.7301 75.1941 60.3361 74.0991 61.5481C73.0447 62.7601 72.5174 64.4367 72.5174 66.578Z" fill="#414141"/>
<path d="M97.618 73.7288L117.206 49.7916H98.5305V39.4895H131.502V48.2766L113.131 72.2138H131.867V82.5159H97.618V73.7288Z" fill="#414141"/>
<path d="M134.441 66.5174C134.441 63.3661 135.029 60.5583 136.205 58.0939C137.422 55.589 139.084 53.6296 141.193 52.2156C143.302 50.7612 145.715 50.034 148.433 50.034C150.501 50.034 152.407 50.5188 154.151 51.4884C155.895 52.4176 157.213 53.7104 158.105 55.3668V38.2775H169.663V69.7898C169.663 70.8806 169.826 71.6482 170.15 72.0926C170.475 72.4966 171.042 72.739 171.853 72.8198V82.5159C169.866 82.9199 168.244 83.1219 166.987 83.1219C163.053 83.1219 160.782 81.6473 160.173 78.6981L159.93 77.5467C158.835 79.4859 157.355 80.8999 155.489 81.7887C153.624 82.6775 151.636 83.1219 149.528 83.1219C146.608 83.1219 144.012 82.4149 141.741 81.0009C139.47 79.5869 137.685 77.6275 136.387 75.1226C135.09 72.6178 134.441 69.7494 134.441 66.5174ZM158.166 70.1534V64.4569C157.639 63.0429 156.807 61.9117 155.672 61.0633C154.577 60.1745 153.421 59.7301 152.204 59.7301C150.541 59.7301 149.142 60.4169 148.007 61.7905C146.912 63.1641 146.364 64.8205 146.364 66.7598C146.364 68.7394 146.952 70.3554 148.128 71.6078C149.304 72.8198 150.825 73.4258 152.691 73.4258C154.84 73.4258 156.665 72.335 158.166 70.1534Z" fill="#414141"/>
<path d="M198.318 60.4573C196.088 60.4573 194.06 60.6997 192.235 61.1845C190.41 61.6693 189.051 62.4773 188.159 63.6085V82.5159H176.601V50.64H187.186V56.7001C188.321 54.5588 189.741 52.9226 191.444 51.7914C193.148 50.6198 194.952 50.034 196.858 50.034C197.629 50.034 198.116 50.0542 198.318 50.0946V60.4573Z" fill="#414141"/>
<path d="M199.788 72.8804C199.788 70.7392 200.376 68.8606 201.552 67.2446C202.728 65.5881 204.35 64.2953 206.419 63.3661C208.528 62.4369 210.921 61.9723 213.597 61.9723C216.193 61.9723 218.342 62.3763 220.046 63.1843V62.2147C220.046 60.7199 219.599 59.6089 218.707 58.8817C217.856 58.1545 216.456 57.7909 214.51 57.7909C212.725 57.7909 211.042 58.0939 209.461 58.6999C207.919 59.2655 206.297 60.1139 204.594 61.2451L201.248 54.0942C205.466 51.3874 210.272 50.034 215.666 50.034C220.735 50.034 224.649 51.1854 227.406 53.4882C230.205 55.7506 231.604 59.1241 231.604 63.6085V69.7898C231.604 70.8806 231.766 71.6482 232.091 72.0926C232.415 72.4966 232.983 72.739 233.794 72.8198V82.5159C232.861 82.7179 231.969 82.8593 231.117 82.9401C230.306 83.0613 229.576 83.1219 228.927 83.1219C226.859 83.1219 225.277 82.7583 224.182 82.0311C223.128 81.2635 222.438 80.1525 222.114 78.6981L221.871 77.5467C218.951 81.2635 215.321 83.1219 210.981 83.1219C208.872 83.1219 206.966 82.6775 205.263 81.7887C203.56 80.8999 202.221 79.6879 201.248 78.1527C200.275 76.5771 199.788 74.8196 199.788 72.8804ZM218.525 73.6682C219.539 72.9814 220.046 72.234 220.046 71.426V69.0626C219.397 68.8202 218.646 68.6182 217.795 68.4566C216.984 68.295 216.254 68.2142 215.605 68.2142C214.226 68.2142 213.05 68.5576 212.076 69.2444C211.144 69.9312 210.677 70.7998 210.677 71.8502C210.677 72.739 211.022 73.4662 211.711 74.0318C212.441 74.5974 213.354 74.8802 214.449 74.8802C215.949 74.8802 217.308 74.4762 218.525 73.6682Z" fill="#414141"/>
<path d="M244.511 82.5159L233.744 50.64H245.606L251.324 72.2744L257.104 50.64H267.871L257.104 82.5159H244.511Z" fill="#414141"/>
</svg>
