<svg width="139" height="37" viewBox="0 0 139 37" fill="none" xmlns="http://www.w3.org/2000/svg">
<g filter="url(#filter0_i_1227_1525)">
<path d="M139.001 5.27802C139.001 2.36794 136.337 0 133.064 0C130.662 0 128.59 1.27484 127.656 3.1025C126.723 1.27484 124.651 0 122.25 0C118.975 0 116.312 2.36794 116.312 5.27802C116.312 5.89192 116.431 6.48064 116.649 7.02937C116.898 7.65397 117.274 8.2245 117.751 8.71655C117.954 8.92709 118.175 9.12257 118.414 9.30221L127.469 17.298C127.525 17.3477 127.597 17.3723 127.671 17.3723C127.745 17.3723 127.818 17.3477 127.874 17.298L137.265 9.00348L137.265 9.00236C137.873 8.46008 138.351 7.8019 138.649 7.0673C138.876 6.50847 139.001 5.90578 139.001 5.27802Z" fill="#FF0014"/>
<path d="M136.478 5.00286V5.74913C136.478 5.97449 136.293 6.16549 136.068 6.16549H135.852C134.937 6.16549 134.195 6.90728 134.195 7.82232C134.195 8.022 133.99 8.18658 133.727 8.18658H132.888C132.625 8.18658 132.42 8.022 132.42 7.82232C132.42 6.90728 131.678 6.16549 130.763 6.16549H130.546C130.322 6.16549 130.137 5.97449 130.137 5.74913V5.00286C130.137 4.76888 130.322 4.57789 130.546 4.57789H130.763C131.678 4.57789 132.42 3.83607 132.42 2.92099C132.42 2.72139 132.625 2.55664 132.888 2.55664H133.727C133.99 2.55664 134.195 2.72139 134.195 2.92099C134.195 3.83607 134.937 4.57789 135.852 4.57789H136.068C136.293 4.57789 136.478 4.76888 136.478 5.00286Z" fill="white"/>
<path d="M0 35.8107V16.3034H8.43968C9.39581 16.3034 10.2784 16.4957 11.0874 16.8804C11.8965 17.265 12.5952 17.7871 13.1836 18.4465C13.7719 19.0875 14.2224 19.8111 14.535 20.617C14.866 21.4229 15.0315 22.238 15.0315 23.0623C15.0315 24.2162 14.7557 25.3061 14.204 26.3318C13.6708 27.3575 12.9169 28.2001 11.9424 28.8595C10.9863 29.5006 9.86468 29.8211 8.57759 29.8211H5.37823V35.8107H0ZM5.37823 25.1504H8.21904C8.55 25.1504 8.85339 25.0038 9.1292 24.7108C9.42339 24.3994 9.57049 23.8499 9.57049 23.0623C9.57049 22.2563 9.40501 21.7068 9.07404 21.4138C8.74307 21.1207 8.4121 20.9742 8.08113 20.9742H5.37823V25.1504Z" fill="#121127"/>
<path d="M26.6718 25.8098C25.6605 25.8098 24.7411 25.9197 23.9137 26.1395C23.0863 26.3593 22.4703 26.7256 22.0658 27.2385V35.8107H16.8255V21.3588H21.6245V24.1063C22.1394 23.1355 22.7829 22.3937 23.5552 21.8808C24.3274 21.3497 25.1457 21.0841 26.0099 21.0841C26.3592 21.0841 26.5799 21.0932 26.6718 21.1115V25.8098Z" fill="#121127"/>
<path d="M35.4429 36.0854C33.7145 36.0854 32.2619 35.7374 31.0851 35.0414C29.9084 34.327 29.0166 33.402 28.4098 32.2664C27.803 31.1308 27.4996 29.9035 27.4996 28.5847C27.4996 27.2476 27.803 26.0113 28.4098 24.8756C29.0166 23.74 29.9084 22.8241 31.0851 22.1281C32.2619 21.4321 33.7145 21.0841 35.4429 21.0841C37.1713 21.0841 38.6238 21.4321 39.8006 22.1281C40.9774 22.8241 41.8692 23.74 42.4759 24.8756C43.0827 26.0113 43.3861 27.2476 43.3861 28.5847C43.3861 29.9035 43.0827 31.1308 42.4759 32.2664C41.8692 33.402 40.9774 34.327 39.8006 35.0414C38.6238 35.7374 37.1713 36.0854 35.4429 36.0854ZM32.8779 28.5847C32.8779 29.5372 33.1169 30.2974 33.595 30.8652C34.0914 31.4147 34.7074 31.6894 35.4429 31.6894C36.1967 31.6894 36.8127 31.4147 37.2908 30.8652C37.7688 30.2974 38.0079 29.5372 38.0079 28.5847C38.0079 27.614 37.7688 26.8538 37.2908 26.3043C36.8127 25.7548 36.1967 25.4801 35.4429 25.4801C34.7074 25.4801 34.0914 25.7548 33.595 26.3043C33.1169 26.8538 32.8779 27.614 32.8779 28.5847Z" fill="#121127"/>
<path d="M44.2579 31.8268L53.1389 20.9742H44.6716V16.3034H59.6203V20.2873L51.291 31.1399H59.7858V35.8107H44.2579V31.8268Z" fill="#121127"/>
<path d="M60.9526 28.5573C60.9526 27.1286 61.2192 25.8556 61.7525 24.7382C62.3041 23.6026 63.0579 22.7142 64.0141 22.0732C64.9702 21.4138 66.0642 21.0841 67.2962 21.0841C68.2339 21.0841 69.0981 21.3039 69.8887 21.7435C70.6794 22.1647 71.277 22.7509 71.6815 23.5019V15.7539H76.9218V30.0409C76.9218 30.5355 76.9954 30.8835 77.1425 31.085C77.2896 31.2681 77.547 31.378 77.9147 31.4147V35.8107C77.0137 35.9938 76.2783 36.0854 75.7083 36.0854C73.9247 36.0854 72.895 35.4169 72.6192 34.0798L72.5089 33.5577C72.0125 34.4369 71.3413 35.078 70.4955 35.481C69.6497 35.8839 68.7487 36.0854 67.7926 36.0854C66.4687 36.0854 65.292 35.7649 64.2623 35.1238C63.2326 34.4827 62.4236 33.5944 61.8352 32.4587C61.2468 31.3231 60.9526 30.0226 60.9526 28.5573ZM71.7091 30.2058V27.6231C71.47 26.982 71.0931 26.4692 70.5783 26.0845C70.0818 25.6816 69.5578 25.4801 69.0062 25.4801C68.2523 25.4801 67.6179 25.7915 67.1031 26.4142C66.6067 27.037 66.3584 27.788 66.3584 28.6672C66.3584 29.5647 66.625 30.2974 67.1583 30.8652C67.6915 31.4147 68.381 31.6894 69.2268 31.6894C70.2013 31.6894 71.0287 31.1949 71.7091 30.2058Z" fill="#121127"/>
<path d="M89.9134 25.8098C88.9021 25.8098 87.9827 25.9197 87.1553 26.1395C86.3279 26.3593 85.7119 26.7256 85.3074 27.2385V35.8107H80.0671V21.3588H84.8661V24.1063C85.381 23.1355 86.0245 22.3937 86.7968 21.8808C87.569 21.3497 88.3873 21.0841 89.2514 21.0841C89.6008 21.0841 89.8214 21.0932 89.9134 21.1115V25.8098Z" fill="#121127"/>
<path d="M90.5796 31.4422C90.5796 30.4714 90.8462 29.6196 91.3795 28.887C91.9127 28.136 92.6482 27.5499 93.5859 27.1286C94.5421 26.7073 95.6269 26.4966 96.8404 26.4966C98.0172 26.4966 98.9917 26.6798 99.764 27.0461V26.6065C99.764 25.9288 99.5617 25.4251 99.1572 25.0954C98.7711 24.7657 98.1367 24.6009 97.2542 24.6009C96.4451 24.6009 95.6821 24.7382 94.965 25.013C94.2663 25.2694 93.5308 25.6541 92.7585 26.1669L91.2416 22.9249C93.1538 21.6977 95.3327 21.0841 97.7782 21.0841C100.077 21.0841 101.851 21.6061 103.101 22.6501C104.37 23.6759 105.004 25.2053 105.004 27.2385V30.0409C105.004 30.5355 105.078 30.8835 105.225 31.085C105.372 31.2681 105.629 31.378 105.997 31.4147V35.8107C105.574 35.9023 105.17 35.9664 104.784 36.003C104.416 36.058 104.085 36.0854 103.791 36.0854C102.853 36.0854 102.136 35.9206 101.639 35.5909C101.161 35.2429 100.849 34.7392 100.702 34.0798L100.591 33.5577C99.2675 35.2429 97.6219 36.0854 95.6545 36.0854C94.6983 36.0854 93.8341 35.8839 93.0619 35.481C92.2896 35.078 91.6829 34.5285 91.2416 33.8325C90.8003 33.1181 90.5796 32.3214 90.5796 31.4422ZM99.0745 31.7993C99.5341 31.4879 99.764 31.1491 99.764 30.7828V29.7112C99.4698 29.6013 99.1296 29.5097 98.7435 29.4365C98.3758 29.3632 98.0448 29.3266 97.7506 29.3266C97.1254 29.3266 96.5922 29.4823 96.1509 29.7936C95.728 30.105 95.5166 30.4988 95.5166 30.9751C95.5166 31.378 95.6729 31.7077 95.9854 31.9642C96.3164 32.2206 96.7301 32.3488 97.2266 32.3488C97.9069 32.3488 98.5229 32.1657 99.0745 31.7993Z" fill="#121127"/>
<path d="M110.856 35.8107L105.974 21.3588H111.353L113.945 31.1674L116.565 21.3588H121.447L116.565 35.8107H110.856Z" fill="#121127"/>
</g>
<defs>
<filter id="filter0_i_1227_1525" x="0" y="0" width="139.001" height="40.0859" filterUnits="userSpaceOnUse" color-interpolation-filters="sRGB">
<feFlood flood-opacity="0" result="BackgroundImageFix"/>
<feBlend mode="normal" in="SourceGraphic" in2="BackgroundImageFix" result="shape"/>
<feColorMatrix in="SourceAlpha" type="matrix" values="0 0 0 0 0 0 0 0 0 0 0 0 0 0 0 0 0 0 127 0" result="hardAlpha"/>
<feOffset dy="4"/>
<feGaussianBlur stdDeviation="2"/>
<feComposite in2="hardAlpha" operator="arithmetic" k2="-1" k3="1"/>
<feColorMatrix type="matrix" values="0 0 0 0 0 0 0 0 0 0 0 0 0 0 0 0 0 0 0.35 0"/>
<feBlend mode="normal" in2="shape" result="effect1_innerShadow_1227_1525"/>
</filter>
</defs>
</svg>
