<svg width="25" height="24" viewBox="0 0 25 24" fill="none" xmlns="http://www.w3.org/2000/svg">
<g clip-path="url(#clip0_1227_1554)">
<path d="M20.3 18.8L16.1 14.6C17.1 13.4 17.6 12 17.6 10.5C17.6 6.9 14.7 4 11.1 4C7.4 4 4.5 6.9 4.5 10.5C4.5 14.1 7.4 17 11 17C12.5 17 13.9 16.5 15.1 15.5L19.3 19.7C19.4 19.8 19.6 19.9 19.8 19.9C20 19.9 20.2 19.8 20.3 19.7C20.4 19.6 20.5 19.4 20.5 19.2C20.5 19.1 20.4 18.9 20.3 18.8ZM11 15.6C8.2 15.6 5.9 13.3 5.9 10.5C5.9 7.7 8.2 5.4 11 5.4C13.8 5.4 16.1 7.7 16.1 10.5C16.1 13.4 13.9 15.6 11 15.6Z" fill="#121127"/>
</g>
<defs>
<clipPath id="clip0_1227_1554">
<rect width="16" height="16" fill="white" transform="translate(4.5 4)"/>
</clipPath>
</defs>
</svg>
